<svg width="89" height="89" viewBox="0 0 89 89" fill="none" xmlns="http://www.w3.org/2000/svg">
<circle cx="44.5442" cy="44.9335" r="43.95" fill="white"/>
<path d="M44.5441 25.5282C46.1319 25.5282 47.0029 24.7564 47.9401 23.9405C48.9985 23.0033 50.1342 22 52.4827 22C57.9183 22 61.7884 38.7811 63.2768 46.4661C58.635 48.4727 52.3614 50.2258 44.5441 50.2258C36.7269 50.2258 30.4533 48.4727 25.8115 46.4661C27.2999 38.7811 31.17 22 36.6056 22C38.9541 22 40.0898 23.0033 41.1482 23.9405C42.0854 24.7564 42.9564 25.5282 44.5441 25.5282ZM21.5114 48.3184C26.7156 51.0197 34.4666 53.7541 44.5552 53.7541C54.6437 53.7541 62.3948 51.0197 67.5879 48.3184C70.3223 46.8961 73.0787 45.1981 75.3169 43.0591C76.1879 42.1881 77.5441 42.0447 78.5805 42.6953C79.628 43.3458 80.069 44.6689 79.6721 45.8376C78.1836 49.9943 75.4382 53.8092 72.3841 56.9295C67.0035 62.4533 58.1719 67.867 44.5441 67.867C30.9164 67.867 22.0958 62.4533 16.7042 56.9295C13.6501 53.7982 10.9047 49.9833 9.41622 45.8266C9.0193 44.6578 9.46033 43.3348 10.5078 42.6842C11.5552 42.0337 12.9003 42.1881 13.7714 43.0481C16.0206 45.1871 18.766 46.885 21.5004 48.3073L21.5114 48.3184Z" fill="black"/>
</svg>
