<svg width="1072" height="379" viewBox="0 0 1072 379" fill="none" xmlns="http://www.w3.org/2000/svg">
    <path d="M0.0612793 145.826V2.82568H74.0613C87.3946 2.82568 98.0613 5.89235 106.061 12.0257C115.128 18.959 119.661 28.359 119.661 40.2257C119.661 53.2924 113.728 62.4257 101.861 67.6257V68.2257C109.595 70.759 115.595 75.0924 119.861 81.2257C124.261 87.359 126.461 94.4924 126.461 102.626C126.461 117.692 120.995 129.092 110.061 136.826C101.395 142.826 89.8613 145.826 75.4613 145.826H0.0612793ZM41.0613 113.026H70.8613C75.3946 113.026 79.0613 111.759 81.8613 109.226C84.6613 106.692 86.0613 103.292 86.0613 99.0257C86.0613 94.6257 84.5946 91.2257 81.6613 88.8257C78.8613 86.4257 75.1946 85.2257 70.6613 85.2257H41.0613V113.026ZM41.0613 58.4257H67.0613C71.1946 58.4257 74.4613 57.4923 76.8613 55.6257C79.2613 53.6257 80.4613 50.759 80.4613 47.0257C80.4613 43.4257 79.1946 40.559 76.6613 38.4257C74.1279 36.2923 70.8613 35.2257 66.8613 35.2257H41.0613V58.4257Z" fill="white"/>
    <path d="M136.975 145.826V2.82568H178.775V110.026H239.975V145.826H136.975Z" fill="white"/>
    <path d="M244.568 145.826L297.368 2.82568H339.968L392.968 145.826H348.568L341.568 124.826H293.168L286.168 145.826H244.568ZM311.968 68.0257L302.568 96.0257H332.168L323.168 68.0257L317.768 49.6257H317.368C315.368 57.2257 313.568 63.359 311.968 68.0257Z" fill="white"/>
    <path d="M457.682 149.226C436.082 149.226 418.615 142.226 405.282 128.226C391.948 114.226 385.282 96.4257 385.282 74.8257C385.282 53.2257 392.015 35.4257 405.482 21.4257C418.948 7.29234 436.348 0.225677 457.682 0.225677C473.548 0.225677 486.882 3.95901 497.682 11.4257C512.615 21.6923 521.015 36.4923 522.882 55.8257H481.082C480.548 49.959 478.015 44.959 473.482 40.8257C469.082 36.6923 463.615 34.6257 457.082 34.6257C447.482 34.6257 440.148 38.2923 435.082 45.6257C430.148 52.959 427.682 62.6924 427.682 74.8257C427.682 86.6924 430.348 96.359 435.682 103.826C441.015 111.292 448.282 115.026 457.482 115.026C464.548 115.026 470.282 112.959 474.682 108.826C479.082 104.692 481.615 99.2924 482.282 92.6257H524.482C523.282 108.226 517.082 121.426 505.882 132.226C494.148 143.559 478.082 149.226 457.682 149.226Z" fill="white"/>
    <path d="M534.632 145.826V2.82568H576.432V49.6257L619.632 2.82568H667.632L614.232 60.4257L670.632 145.826H622.032L585.632 89.2257L576.432 99.6257V145.826H534.632Z" fill="white"/>
    <path d="M678.382 145.826V2.82568H720.182V55.2257H764.182V2.82568H805.982V145.826H764.182V89.8257H720.182V145.826H678.382Z" fill="white"/>
    <path d="M813.708 145.826L866.508 2.82568H909.108L962.108 145.826H917.708L910.708 124.826H862.308L855.308 145.826H813.708ZM881.108 68.0257L871.708 96.0257H901.308L892.308 68.0257L886.908 49.6257H886.508C884.508 57.2257 882.708 63.359 881.108 68.0257Z" fill="white"/>
    <path d="M946.414 38.4257V2.82568H1069.61V38.4257H1028.61V145.826H986.814V38.4257H946.414Z" fill="white"/>
    <path d="M0.0613767 374.65V204.912H49.6771V267.11H101.904V204.912H151.52V374.65H101.904V308.179H49.6771V374.65H0.0613767Z" fill="white"/>
    <path d="M246.391 377.736C221.385 377.736 202.473 371.88 189.653 360.169C176.992 348.299 170.662 331.523 170.662 309.841V204.912H220.277V312.69C220.277 320.761 222.493 327.012 226.925 331.444C231.514 335.875 238.24 338.091 247.103 338.091C255.333 338.091 261.584 335.717 265.857 330.969C270.289 326.063 272.505 319.653 272.505 311.74V204.912H322.12V309.841C322.12 331.206 315.711 347.903 302.891 359.931C290.072 371.801 271.238 377.736 246.391 377.736Z" fill="white"/>
    <path d="M341.318 374.65V204.912H390.934L446.484 300.345H446.959V204.912H494.913V374.65H443.635L389.747 278.505H389.272V374.65H341.318Z" fill="white"/>
    <path d="M508.776 247.168V204.912H655.012V247.168H606.346V374.65H556.73V247.168H508.776Z" fill="white"/>
    <path d="M668.896 374.65V204.912H718.512V374.65H668.896Z" fill="white"/>
    <path d="M738.909 374.65V204.912H788.525L844.076 300.345H844.551V204.912H892.505V374.65H841.227L787.338 278.505H786.863V374.65H738.909Z" fill="white"/>
    <path d="M1038.83 374.65L1035.04 356.608H1034.56C1024.43 371.326 1008.21 378.686 985.896 378.686C962.631 378.686 943.956 371.168 929.87 356.133C914.202 339.515 906.368 317.596 906.368 290.374C906.368 264.736 913.965 243.607 929.158 226.99C944.51 210.214 965.005 201.826 990.644 201.826C1012.64 201.826 1030.45 207.207 1044.06 217.969C1057.67 228.731 1065.82 243.607 1068.51 262.599H1020.56C1019.13 256.902 1015.89 252.154 1010.82 248.355C1005.92 244.557 999.823 242.658 992.543 242.658C980.989 242.658 972.127 247.01 965.954 255.715C959.782 264.419 956.696 275.972 956.696 290.374C956.696 304.618 960.019 316.25 966.667 325.271C973.472 334.293 982.73 338.803 994.442 338.803C1010.58 338.803 1020.56 331.76 1024.35 317.675H1001.8V282.54H1071.83V374.65H1038.83Z" fill="white"/>
    </svg>
    